<?xml version="1.0" standalone="no"?>
<!DOCTYPE svg PUBLIC "-//W3C//DTD SVG 20010904//EN"
 "http://www.w3.org/TR/2001/REC-SVG-20010904/DTD/svg10.dtd">
<svg version="1.0" xmlns="http://www.w3.org/2000/svg"
 width="227.000000pt" height="69.000000pt" viewBox="0 0 227.000000 69.000000"
 preserveAspectRatio="xMidYMid meet">
<metadata>
Created by potrace 1.16, written by Peter Selinger 2001-2019
</metadata>
<g transform="translate(0.000000,69.000000) scale(0.100000,-0.100000)"
fill="#000000" stroke="none">
<path d="M1720 565 l-3 -70 -6 55 -7 55 -8 -68 c-7 -56 -6 -71 8 -86 11 -12
16 -36 16 -80 l0 -62 -31 23 c-43 32 -173 34 -215 2 -51 -38 -69 -71 -69 -129
0 -58 18 -91 68 -129 41 -31 144 -35 197 -7 22 11 40 16 40 11 0 -6 11 -10 25
-10 l25 0 0 189 c0 116 4 192 10 196 12 7 12 102 0 130 -6 15 -9 6 -11 -35
l-3 -55 -6 70 -6 70 -4 -70 -4 -70 -6 70 -6 70 -4 -70z m-59 -262 c31 -18 59
-67 59 -103 0 -35 -28 -79 -62 -96 -22 -12 -49 -15 -96 -12 -58 4 -68 8 -93
36 -51 57 -32 155 35 182 37 15 126 11 157 -7z"/>
<path d="M112 328 c3 -152 5 -165 27 -198 34 -51 68 -73 120 -77 57 -5 108 19
136 64 11 18 22 32 25 33 3 0 12 -13 22 -29 29 -52 102 -82 162 -67 37 9 87
56 107 101 25 55 28 335 4 335 -13 0 -15 -21 -15 -127 0 -151 -10 -195 -55
-240 -57 -57 -146 -39 -185 37 -16 32 -20 59 -20 150 0 103 -1 110 -20 110
-19 0 -20 -7 -20 -110 0 -91 -4 -118 -20 -150 -55 -108 -199 -86 -229 34 -6
25 -11 101 -11 170 0 108 -2 126 -16 126 -14 0 -15 -19 -12 -162z"/>
<path d="M1180 290 c0 -187 1 -201 20 -220 23 -23 70 -27 70 -6 0 8 -11 17
-25 20 l-25 6 0 200 c0 193 -1 200 -20 200 -19 0 -20 -7 -20 -200z"/>
</g>
</svg>
